<svg width="120" height="120" viewBox="0 0 120 120" fill="none" xmlns="http://www.w3.org/2000/svg">
<rect width="120" height="120" fill="#169E84"/>
<path d="M26.7383 104V11.5781H59.1113C70.3255 11.5781 78.8314 13.7363 84.6289 18.0527C90.4264 22.3268 93.3252 28.611 93.3252 36.9053C93.3252 41.4333 92.1615 45.4323 89.834 48.9023C87.5065 52.3301 84.2692 54.848 80.1221 56.4561C84.8617 57.641 88.5856 60.0319 91.2939 63.6289C94.0446 67.2259 95.4199 71.627 95.4199 76.832C95.4199 85.7188 92.5846 92.4473 86.9141 97.0176C81.2435 101.588 73.1608 103.915 62.666 104H26.7383ZM45.7812 63.7559V88.7021H62.0947C66.5804 88.7021 70.0716 87.6442 72.5684 85.5283C75.1074 83.3701 76.377 80.4079 76.377 76.6416C76.377 68.1781 71.9971 63.8828 63.2373 63.7559H45.7812ZM45.7812 50.2988H59.873C69.4792 50.1296 74.2822 46.2998 74.2822 38.8096C74.2822 34.6201 73.055 31.6156 70.6006 29.7959C68.1885 27.9339 64.3587 27.0029 59.1113 27.0029H45.7812V50.2988Z" fill="white"/>
</svg>
